<mxfile host="app.diagrams.net" modified="2022-12-16T20:40:15.539Z" agent="5.0 (X11)" etag="xP6uPZxiRbXwPH6LEJpu" version="20.6.2" type="github">
  <diagram name="Page-1" id="e3a06f82-3646-2815-327d-82caf3d4e204">
    <mxGraphModel dx="530" dy="2988" grid="1" gridSize="10" guides="1" tooltips="1" connect="1" arrows="1" fold="1" page="1" pageScale="1.5" pageWidth="1169" pageHeight="826" background="none" math="0" shadow="0">
      <root>
        <mxCell id="0" style=";html=1;" />
        <mxCell id="1" style=";html=1;" parent="0" />
        <mxCell id="kNAQQPgvvK02Aw0wDlUr-91" value="&lt;div&gt;REDINTDMZ&lt;/div&gt;&lt;div&gt;&lt;br&gt;&lt;/div&gt;&lt;div&gt;&lt;br&gt;&lt;/div&gt;&lt;div&gt;&lt;br&gt;&lt;/div&gt;&lt;div&gt;&lt;br&gt;&lt;/div&gt;&lt;div&gt;&lt;br&gt;&lt;/div&gt;&lt;div&gt;&lt;br&gt;&lt;/div&gt;&lt;div&gt;&lt;br&gt;&lt;/div&gt;" style="ellipse;shape=cloud;whiteSpace=wrap;html=1;shadow=0;fillColor=#f8cecc;strokeColor=#b85450;" vertex="1" parent="1">
          <mxGeometry x="2360" y="-220" width="650" height="430" as="geometry" />
        </mxCell>
        <mxCell id="kNAQQPgvvK02Aw0wDlUr-9" value="" style="edgeStyle=orthogonalEdgeStyle;rounded=0;orthogonalLoop=1;jettySize=auto;html=1;sketch=0;shadow=0;" edge="1" parent="1">
          <mxGeometry x="0.6" y="10" relative="1" as="geometry">
            <mxPoint x="1340" y="530" as="sourcePoint" />
            <mxPoint x="1540" y="530" as="targetPoint" />
            <mxPoint as="offset" />
          </mxGeometry>
        </mxCell>
        <mxCell id="kNAQQPgvvK02Aw0wDlUr-1" value="INFRA Router" style="outlineConnect=0;dashed=0;verticalLabelPosition=bottom;verticalAlign=top;align=center;html=1;shape=mxgraph.aws3.router;fillColor=#F58536;gradientColor=none;sketch=0;shadow=0;container=0;" vertex="1" parent="1">
          <mxGeometry x="1260" y="490" width="80" height="80" as="geometry" />
        </mxCell>
        <mxCell id="kNAQQPgvvK02Aw0wDlUr-6" value="Internet" style="edgeStyle=orthogonalEdgeStyle;rounded=0;orthogonalLoop=1;jettySize=auto;html=1;sketch=0;shadow=0;" edge="1" parent="1" source="kNAQQPgvvK02Aw0wDlUr-2" target="kNAQQPgvvK02Aw0wDlUr-1">
          <mxGeometry relative="1" as="geometry" />
        </mxCell>
        <mxCell id="kNAQQPgvvK02Aw0wDlUr-2" value="&lt;div&gt;Internet Host&lt;/div&gt;&lt;div&gt;10.10.0.40&lt;br&gt;&lt;/div&gt;" style="ellipse;whiteSpace=wrap;html=1;aspect=fixed;sketch=0;shadow=0;container=0;" vertex="1" parent="1">
          <mxGeometry x="1140" y="650" width="80" height="80" as="geometry" />
        </mxCell>
        <mxCell id="kNAQQPgvvK02Aw0wDlUr-7" style="edgeStyle=orthogonalEdgeStyle;rounded=0;orthogonalLoop=1;jettySize=auto;html=1;sketch=0;shadow=0;" edge="1" parent="1" source="kNAQQPgvvK02Aw0wDlUr-3" target="kNAQQPgvvK02Aw0wDlUr-1">
          <mxGeometry relative="1" as="geometry" />
        </mxCell>
        <mxCell id="kNAQQPgvvK02Aw0wDlUr-3" value="Blue" style="ellipse;shape=cloud;whiteSpace=wrap;html=1;fillColor=#dae8fc;strokeColor=#6c8ebf;sketch=0;shadow=0;container=0;" vertex="1" parent="1">
          <mxGeometry x="660" y="410" width="400" height="280" as="geometry" />
        </mxCell>
        <mxCell id="kNAQQPgvvK02Aw0wDlUr-8" value="RED_SCR_Router" style="outlineConnect=0;dashed=0;verticalLabelPosition=bottom;verticalAlign=top;align=center;html=1;shape=mxgraph.aws3.router;fillColor=#F58536;gradientColor=none;sketch=0;shadow=0;container=0;" vertex="1" parent="1">
          <mxGeometry x="1540" y="490" width="80" height="80" as="geometry" />
        </mxCell>
        <mxCell id="kNAQQPgvvK02Aw0wDlUr-12" style="edgeStyle=orthogonalEdgeStyle;rounded=0;orthogonalLoop=1;jettySize=auto;html=1;sketch=0;shadow=0;" edge="1" parent="1" target="kNAQQPgvvK02Aw0wDlUr-8">
          <mxGeometry relative="1" as="geometry">
            <mxPoint x="1910" y="530" as="sourcePoint" />
          </mxGeometry>
        </mxCell>
        <UserObject label="eth0 = .1" link="172.16.120.1" id="kNAQQPgvvK02Aw0wDlUr-15">
          <mxCell style="text;whiteSpace=wrap;html=1;sketch=0;shadow=0;container=0;" vertex="1" parent="1">
            <mxGeometry x="1490" y="507" width="50" height="20" as="geometry" />
          </mxCell>
        </UserObject>
        <UserObject label="172.16.120.X/30" link="172.16.120.1" id="kNAQQPgvvK02Aw0wDlUr-17">
          <mxCell style="text;whiteSpace=wrap;html=1;sketch=0;shadow=0;container=0;" vertex="1" parent="1">
            <mxGeometry x="1390" y="527" width="80" height="20" as="geometry" />
          </mxCell>
        </UserObject>
        <UserObject label="&lt;div&gt;.2&lt;/div&gt;" link="172.16.120.1" id="kNAQQPgvvK02Aw0wDlUr-19">
          <mxCell style="text;whiteSpace=wrap;html=1;sketch=0;shadow=0;container=0;" vertex="1" parent="1">
            <mxGeometry x="1340" y="507" width="20" height="20" as="geometry" />
          </mxCell>
        </UserObject>
        <UserObject label="eth1 = .6" link="172.16.120.1" id="kNAQQPgvvK02Aw0wDlUr-28">
          <mxCell style="text;whiteSpace=wrap;html=1;sketch=0;shadow=0;container=0;" vertex="1" parent="1">
            <mxGeometry x="1630" y="507" width="50" height="20" as="geometry" />
          </mxCell>
        </UserObject>
        <mxCell id="kNAQQPgvvK02Aw0wDlUr-18" value="&lt;div&gt;Hostname: RED-SCR&lt;/div&gt;" style="text;html=1;align=center;verticalAlign=middle;resizable=0;points=[];autosize=1;strokeColor=none;fillColor=none;sketch=0;shadow=0;container=0;" vertex="1" parent="1">
          <mxGeometry x="1510" y="600" width="140" height="30" as="geometry" />
        </mxCell>
        <mxCell id="kNAQQPgvvK02Aw0wDlUr-32" value="AS 120" style="text;html=1;align=center;verticalAlign=middle;resizable=0;points=[];autosize=1;strokeColor=none;fillColor=none;sketch=0;shadow=0;container=0;" vertex="1" parent="1">
          <mxGeometry x="1550" y="585" width="60" height="30" as="geometry" />
        </mxCell>
        <mxCell id="kNAQQPgvvK02Aw0wDlUr-56" style="edgeStyle=orthogonalEdgeStyle;rounded=0;sketch=0;orthogonalLoop=1;jettySize=auto;html=1;shadow=0;entryX=0.07;entryY=0.4;entryDx=0;entryDy=0;entryPerimeter=0;" edge="1" parent="1" source="kNAQQPgvvK02Aw0wDlUr-40" target="kNAQQPgvvK02Aw0wDlUr-55">
          <mxGeometry relative="1" as="geometry">
            <Array as="points">
              <mxPoint x="1580" y="120" />
            </Array>
          </mxGeometry>
        </mxCell>
        <mxCell id="kNAQQPgvvK02Aw0wDlUr-40" value="eth2 = .30" style="text;whiteSpace=wrap;html=1;sketch=0;shadow=0;container=0;" vertex="1" parent="1">
          <mxGeometry x="1550" y="460" width="60" height="23" as="geometry" />
        </mxCell>
        <mxCell id="kNAQQPgvvK02Aw0wDlUr-50" value="172.16.101.X/27" style="text;whiteSpace=wrap;html=1;container=0;" vertex="1" parent="1">
          <mxGeometry x="1480" y="230" width="90" height="20" as="geometry" />
        </mxCell>
        <mxCell id="kNAQQPgvvK02Aw0wDlUr-51" value="&lt;div align=&quot;center&quot;&gt;eth2&lt;br&gt;&lt;/div&gt;&lt;div align=&quot;center&quot;&gt;Description: DMZ&lt;br&gt;&lt;/div&gt;&lt;div align=&quot;center&quot;&gt;&lt;br&gt;&lt;/div&gt;&lt;div align=&quot;center&quot;&gt;Open Ports:&lt;/div&gt;&lt;div align=&quot;center&quot;&gt;22/TCP ssh&lt;/div&gt;&lt;div align=&quot;center&quot;&gt;179/TCP bgp&lt;/div&gt;" style="text;whiteSpace=wrap;html=1;align=center;container=0;" vertex="1" parent="1">
          <mxGeometry x="1520" y="870" width="120" height="120" as="geometry" />
        </mxCell>
        <mxCell id="kNAQQPgvvK02Aw0wDlUr-30" value="&lt;div align=&quot;center&quot;&gt;eth0&lt;br&gt;&lt;/div&gt;&lt;div align=&quot;center&quot;&gt;Description: Internet&lt;/div&gt;&lt;div align=&quot;center&quot;&gt;&lt;br&gt;&lt;/div&gt;&lt;div align=&quot;center&quot;&gt;Open Ports:&lt;/div&gt;&lt;div align=&quot;center&quot;&gt;22/TCP ssh&lt;/div&gt;&lt;div align=&quot;center&quot;&gt;179/TCP bgp&lt;/div&gt;" style="text;whiteSpace=wrap;html=1;align=center;sketch=0;shadow=0;container=0;" vertex="1" parent="1">
          <mxGeometry x="1520" y="630" width="120" height="120" as="geometry" />
        </mxCell>
        <mxCell id="kNAQQPgvvK02Aw0wDlUr-31" value="&lt;div align=&quot;center&quot;&gt;eth1&lt;br&gt;&lt;/div&gt;&lt;div align=&quot;center&quot;&gt;Description: REDNET&lt;br&gt;&lt;/div&gt;&lt;div align=&quot;center&quot;&gt;&lt;br&gt;&lt;/div&gt;&lt;div align=&quot;center&quot;&gt;Open Ports:&lt;/div&gt;&lt;div align=&quot;center&quot;&gt;22/TCP ssh&lt;/div&gt;&lt;div align=&quot;center&quot;&gt;179/TCP bgp&lt;/div&gt;" style="text;whiteSpace=wrap;html=1;align=center;sketch=0;shadow=0;container=0;" vertex="1" parent="1">
          <mxGeometry x="1520" y="750" width="120" height="120" as="geometry" />
        </mxCell>
        <mxCell id="kNAQQPgvvK02Aw0wDlUr-55" value="RED DMZ NET" style="ellipse;shape=cloud;whiteSpace=wrap;html=1;shadow=0;fillColor=#f8cecc;strokeColor=#b85450;" vertex="1" parent="1">
          <mxGeometry x="1660" y="-20" width="520" height="350" as="geometry" />
        </mxCell>
        <UserObject label="172.16.120.X/30" link="172.16.120.1" id="kNAQQPgvvK02Aw0wDlUr-57">
          <mxCell style="text;whiteSpace=wrap;html=1;sketch=0;shadow=0;container=0;" vertex="1" parent="1">
            <mxGeometry x="1720" y="527" width="80" height="20" as="geometry" />
          </mxCell>
        </UserObject>
        <mxCell id="kNAQQPgvvK02Aw0wDlUr-67" style="edgeStyle=orthogonalEdgeStyle;rounded=0;sketch=0;orthogonalLoop=1;jettySize=auto;html=1;shadow=0;" edge="1" parent="1" source="kNAQQPgvvK02Aw0wDlUr-58" target="kNAQQPgvvK02Aw0wDlUr-66">
          <mxGeometry relative="1" as="geometry" />
        </mxCell>
        <mxCell id="kNAQQPgvvK02Aw0wDlUr-58" value="RED-IPS Router" style="outlineConnect=0;dashed=0;verticalLabelPosition=bottom;verticalAlign=top;align=center;html=1;shape=mxgraph.aws3.router;fillColor=#F58536;gradientColor=none;sketch=0;shadow=0;container=0;" vertex="1" parent="1">
          <mxGeometry x="1910" y="490" width="80" height="80" as="geometry" />
        </mxCell>
        <mxCell id="kNAQQPgvvK02Aw0wDlUr-61" value="&lt;div align=&quot;center&quot;&gt;eth0&lt;br&gt;&lt;/div&gt;&lt;div align=&quot;center&quot;&gt;Description: Internet&lt;/div&gt;&lt;div align=&quot;center&quot;&gt;&lt;br&gt;&lt;/div&gt;&lt;div align=&quot;center&quot;&gt;Open Ports:&lt;/div&gt;&lt;div align=&quot;center&quot;&gt;22/TCP ssh&lt;/div&gt;&lt;div align=&quot;center&quot;&gt;179/TCP bgp&lt;/div&gt;" style="text;whiteSpace=wrap;html=1;align=center;sketch=0;shadow=0;container=0;" vertex="1" parent="1">
          <mxGeometry x="1890" y="600" width="120" height="120" as="geometry" />
        </mxCell>
        <mxCell id="kNAQQPgvvK02Aw0wDlUr-62" value="&lt;div align=&quot;center&quot;&gt;eth1&lt;br&gt;&lt;/div&gt;&lt;div align=&quot;center&quot;&gt;Description: REDNET&lt;br&gt;&lt;/div&gt;&lt;div align=&quot;center&quot;&gt;&lt;br&gt;&lt;/div&gt;&lt;div align=&quot;center&quot;&gt;Open Ports:&lt;/div&gt;&lt;div align=&quot;center&quot;&gt;22/TCP ssh&lt;/div&gt;&lt;div align=&quot;center&quot;&gt;179/TCP bgp&lt;/div&gt;" style="text;whiteSpace=wrap;html=1;align=center;sketch=0;shadow=0;container=0;" vertex="1" parent="1">
          <mxGeometry x="1890" y="720" width="120" height="120" as="geometry" />
        </mxCell>
        <mxCell id="kNAQQPgvvK02Aw0wDlUr-63" value="&lt;div&gt;red-dmz-host-1&lt;/div&gt;&lt;div&gt;172.16.101.2&lt;br&gt;&lt;/div&gt;" style="ellipse;whiteSpace=wrap;html=1;aspect=fixed;sketch=0;shadow=0;container=0;" vertex="1" parent="1">
          <mxGeometry x="1660" y="60" width="120" height="120" as="geometry" />
        </mxCell>
        <UserObject label="eth0 = .2" link="172.16.120.1" id="kNAQQPgvvK02Aw0wDlUr-64">
          <mxCell style="text;whiteSpace=wrap;html=1;sketch=0;shadow=0;container=0;" vertex="1" parent="1">
            <mxGeometry x="1610" y="100" width="50" height="20" as="geometry" />
          </mxCell>
        </UserObject>
        <UserObject label="eth0 = .5" link="172.16.120.1" id="kNAQQPgvvK02Aw0wDlUr-65">
          <mxCell style="text;whiteSpace=wrap;html=1;sketch=0;shadow=0;container=0;" vertex="1" parent="1">
            <mxGeometry x="1860" y="507" width="50" height="20" as="geometry" />
          </mxCell>
        </UserObject>
        <mxCell id="kNAQQPgvvK02Aw0wDlUr-76" style="edgeStyle=orthogonalEdgeStyle;rounded=0;sketch=0;orthogonalLoop=1;jettySize=auto;html=1;shadow=0;entryX=0;entryY=0.5;entryDx=0;entryDy=0;" edge="1" parent="1" source="kNAQQPgvvK02Aw0wDlUr-66" target="kNAQQPgvvK02Aw0wDlUr-95">
          <mxGeometry relative="1" as="geometry">
            <mxPoint x="2640" y="530" as="targetPoint" />
            <Array as="points">
              <mxPoint x="2600" y="530" />
              <mxPoint x="2600" y="344" />
            </Array>
          </mxGeometry>
        </mxCell>
        <mxCell id="kNAQQPgvvK02Aw0wDlUr-78" style="edgeStyle=orthogonalEdgeStyle;rounded=0;sketch=0;orthogonalLoop=1;jettySize=auto;html=1;shadow=0;startArrow=none;entryX=0;entryY=0.5;entryDx=0;entryDy=0;entryPerimeter=0;" edge="1" parent="1" source="kNAQQPgvvK02Aw0wDlUr-81" target="kNAQQPgvvK02Aw0wDlUr-106">
          <mxGeometry relative="1" as="geometry">
            <mxPoint x="2470" y="310" as="targetPoint" />
            <Array as="points">
              <mxPoint x="2320" y="140" />
              <mxPoint x="2380" y="140" />
            </Array>
          </mxGeometry>
        </mxCell>
        <mxCell id="kNAQQPgvvK02Aw0wDlUr-96" style="edgeStyle=orthogonalEdgeStyle;rounded=0;sketch=0;orthogonalLoop=1;jettySize=auto;html=1;entryX=0;entryY=0.5;entryDx=0;entryDy=0;shadow=0;" edge="1" parent="1" source="kNAQQPgvvK02Aw0wDlUr-66" target="kNAQQPgvvK02Aw0wDlUr-94">
          <mxGeometry relative="1" as="geometry">
            <Array as="points">
              <mxPoint x="2600" y="530" />
              <mxPoint x="2600" y="714" />
            </Array>
          </mxGeometry>
        </mxCell>
        <mxCell id="kNAQQPgvvK02Aw0wDlUr-97" style="edgeStyle=orthogonalEdgeStyle;rounded=0;sketch=0;orthogonalLoop=1;jettySize=auto;html=1;entryX=0;entryY=0.5;entryDx=0;entryDy=0;shadow=0;" edge="1" parent="1" source="kNAQQPgvvK02Aw0wDlUr-66" target="kNAQQPgvvK02Aw0wDlUr-92">
          <mxGeometry relative="1" as="geometry">
            <Array as="points">
              <mxPoint x="2600" y="530" />
              <mxPoint x="2600" y="467" />
            </Array>
          </mxGeometry>
        </mxCell>
        <mxCell id="kNAQQPgvvK02Aw0wDlUr-98" style="edgeStyle=orthogonalEdgeStyle;rounded=0;sketch=0;orthogonalLoop=1;jettySize=auto;html=1;entryX=0;entryY=0.5;entryDx=0;entryDy=0;shadow=0;" edge="1" parent="1" source="kNAQQPgvvK02Aw0wDlUr-66" target="kNAQQPgvvK02Aw0wDlUr-93">
          <mxGeometry relative="1" as="geometry">
            <Array as="points">
              <mxPoint x="2600" y="530" />
              <mxPoint x="2600" y="590" />
            </Array>
          </mxGeometry>
        </mxCell>
        <mxCell id="kNAQQPgvvK02Aw0wDlUr-66" value="RED-POP Router" style="outlineConnect=0;dashed=0;verticalLabelPosition=bottom;verticalAlign=top;align=center;html=1;shape=mxgraph.aws3.router;fillColor=#F58536;gradientColor=none;sketch=0;shadow=0;container=0;" vertex="1" parent="1">
          <mxGeometry x="2280" y="490" width="80" height="80" as="geometry" />
        </mxCell>
        <UserObject label="eth1 = .10" link="172.16.120.1" id="kNAQQPgvvK02Aw0wDlUr-68">
          <mxCell style="text;whiteSpace=wrap;html=1;sketch=0;shadow=0;container=0;" vertex="1" parent="1">
            <mxGeometry x="2000" y="507" width="60" height="20" as="geometry" />
          </mxCell>
        </UserObject>
        <UserObject label="172.16.120.X/30" link="172.16.120.1" id="kNAQQPgvvK02Aw0wDlUr-69">
          <mxCell style="text;whiteSpace=wrap;html=1;sketch=0;shadow=0;container=0;" vertex="1" parent="1">
            <mxGeometry x="2080" y="527" width="80" height="20" as="geometry" />
          </mxCell>
        </UserObject>
        <UserObject label="eth0 = .9" link="172.16.120.1" id="kNAQQPgvvK02Aw0wDlUr-71">
          <mxCell style="text;whiteSpace=wrap;html=1;sketch=0;shadow=0;container=0;" vertex="1" parent="1">
            <mxGeometry x="2220" y="507" width="50" height="20" as="geometry" />
          </mxCell>
        </UserObject>
        <mxCell id="kNAQQPgvvK02Aw0wDlUr-72" value="&lt;div align=&quot;center&quot;&gt;eth0&lt;br&gt;&lt;/div&gt;&lt;div align=&quot;center&quot;&gt;Description: Internet&lt;/div&gt;&lt;div align=&quot;center&quot;&gt;&lt;br&gt;&lt;/div&gt;&lt;div align=&quot;center&quot;&gt;Open Ports:&lt;/div&gt;&lt;div align=&quot;center&quot;&gt;22/TCP ssh&lt;/div&gt;&lt;div align=&quot;center&quot;&gt;179/TCP bgp&lt;/div&gt;" style="text;whiteSpace=wrap;html=1;align=center;sketch=0;shadow=0;container=0;" vertex="1" parent="1">
          <mxGeometry x="2260" y="600" width="120" height="120" as="geometry" />
        </mxCell>
        <mxCell id="kNAQQPgvvK02Aw0wDlUr-73" value="&lt;div align=&quot;center&quot;&gt;eth2&lt;br&gt;&lt;/div&gt;&lt;div align=&quot;center&quot;&gt;Description: REDINTDMZ&lt;br&gt;&lt;/div&gt;&lt;div align=&quot;center&quot;&gt;&lt;br&gt;&lt;/div&gt;&lt;div align=&quot;center&quot;&gt;Open Ports:&lt;/div&gt;&lt;div align=&quot;center&quot;&gt;22/TCP ssh&lt;/div&gt;&lt;div align=&quot;center&quot;&gt;179/TCP bgp&lt;/div&gt;" style="text;whiteSpace=wrap;html=1;align=center;container=0;" vertex="1" parent="1">
          <mxGeometry x="2260" y="840" width="120" height="120" as="geometry" />
        </mxCell>
        <mxCell id="kNAQQPgvvK02Aw0wDlUr-74" value="&lt;div align=&quot;center&quot;&gt;eth1&lt;br&gt;&lt;/div&gt;&lt;div align=&quot;center&quot;&gt;Description: REDHOSTS&lt;br&gt;&lt;/div&gt;&lt;div align=&quot;center&quot;&gt;&lt;br&gt;&lt;/div&gt;&lt;div align=&quot;center&quot;&gt;Open Ports:&lt;/div&gt;&lt;div align=&quot;center&quot;&gt;22/TCP ssh&lt;/div&gt;&lt;div align=&quot;center&quot;&gt;179/TCP bgp&lt;/div&gt;" style="text;whiteSpace=wrap;html=1;align=center;sketch=0;shadow=0;container=0;" vertex="1" parent="1">
          <mxGeometry x="2260" y="720" width="120" height="120" as="geometry" />
        </mxCell>
        <UserObject label="eth1 = .126" link="172.16.120.1" id="kNAQQPgvvK02Aw0wDlUr-79">
          <mxCell style="text;whiteSpace=wrap;html=1;sketch=0;shadow=0;container=0;" vertex="1" parent="1">
            <mxGeometry x="2360" y="507" width="70" height="20" as="geometry" />
          </mxCell>
        </UserObject>
        <UserObject label="172.16.182.X/27" link="172.16.120.1" id="kNAQQPgvvK02Aw0wDlUr-80">
          <mxCell style="text;whiteSpace=wrap;html=1;sketch=0;shadow=0;container=0;" vertex="1" parent="1">
            <mxGeometry x="2510" y="507" width="80" height="20" as="geometry" />
          </mxCell>
        </UserObject>
        <mxCell id="kNAQQPgvvK02Aw0wDlUr-81" value="eth2 = .6" style="text;whiteSpace=wrap;html=1;sketch=0;shadow=0;container=0;" vertex="1" parent="1">
          <mxGeometry x="2290" y="467" width="60" height="23" as="geometry" />
        </mxCell>
        <mxCell id="kNAQQPgvvK02Aw0wDlUr-83" value="&amp;nbsp;" style="text;whiteSpace=wrap;html=1;" vertex="1" parent="1">
          <mxGeometry x="2390" y="490" width="40" height="40" as="geometry" />
        </mxCell>
        <UserObject label="172.16.140.X/30" link="172.16.120.1" id="kNAQQPgvvK02Aw0wDlUr-86">
          <mxCell style="text;whiteSpace=wrap;html=1;sketch=0;shadow=0;container=0;" vertex="1" parent="1">
            <mxGeometry x="2230" y="370" width="80" height="20" as="geometry" />
          </mxCell>
        </UserObject>
        <mxCell id="kNAQQPgvvK02Aw0wDlUr-88" value="eth0 = .5" style="text;whiteSpace=wrap;html=1;sketch=0;shadow=0;container=0;" vertex="1" parent="1">
          <mxGeometry x="2390" y="120" width="60" height="23" as="geometry" />
        </mxCell>
        <mxCell id="kNAQQPgvvK02Aw0wDlUr-90" value="&amp;nbsp;" style="text;whiteSpace=wrap;html=1;" vertex="1" parent="1">
          <mxGeometry x="180" y="-1270" width="40" height="40" as="geometry" />
        </mxCell>
        <mxCell id="kNAQQPgvvK02Aw0wDlUr-92" value="&lt;div&gt;recon server 1&lt;br&gt;&lt;/div&gt;&lt;div&gt;172.16.182.110&lt;/div&gt;" style="ellipse;whiteSpace=wrap;html=1;aspect=fixed;sketch=0;shadow=0;container=0;" vertex="1" parent="1">
          <mxGeometry x="2680" y="407" width="120" height="120" as="geometry" />
        </mxCell>
        <mxCell id="kNAQQPgvvK02Aw0wDlUr-93" value="&lt;div&gt;red-host-3&lt;/div&gt;&lt;div&gt;172.16.182.114&lt;/div&gt;" style="ellipse;whiteSpace=wrap;html=1;aspect=fixed;sketch=0;shadow=0;container=0;" vertex="1" parent="1">
          <mxGeometry x="2680" y="530" width="120" height="120" as="geometry" />
        </mxCell>
        <mxCell id="kNAQQPgvvK02Aw0wDlUr-94" value="&lt;div&gt;red-host-4&lt;/div&gt;&lt;div&gt;172.16.182.118&lt;/div&gt;" style="ellipse;whiteSpace=wrap;html=1;aspect=fixed;sketch=0;shadow=0;container=0;" vertex="1" parent="1">
          <mxGeometry x="2680" y="654" width="120" height="120" as="geometry" />
        </mxCell>
        <mxCell id="kNAQQPgvvK02Aw0wDlUr-95" value="&lt;div&gt;red-host-1&lt;/div&gt;&lt;div&gt;172.16.182.106&lt;br&gt;&lt;/div&gt;" style="ellipse;whiteSpace=wrap;html=1;aspect=fixed;sketch=0;shadow=0;container=0;" vertex="1" parent="1">
          <mxGeometry x="2680" y="284" width="120" height="120" as="geometry" />
        </mxCell>
        <mxCell id="kNAQQPgvvK02Aw0wDlUr-102" value="&lt;div&gt;Open Ports: 22, 80, 1980, 1982, 1988, 1989&lt;br&gt;&lt;/div&gt;" style="text;html=1;align=center;verticalAlign=middle;resizable=0;points=[];autosize=1;strokeColor=none;fillColor=none;" vertex="1" parent="1">
          <mxGeometry x="2810" y="439.5" width="260" height="30" as="geometry" />
        </mxCell>
        <mxCell id="kNAQQPgvvK02Aw0wDlUr-103" value="&lt;div&gt;Open Ports: 22&lt;/div&gt;" style="text;html=1;align=center;verticalAlign=middle;resizable=0;points=[];autosize=1;strokeColor=none;fillColor=none;" vertex="1" parent="1">
          <mxGeometry x="2810" y="330" width="100" height="30" as="geometry" />
        </mxCell>
        <mxCell id="kNAQQPgvvK02Aw0wDlUr-104" value="&lt;div&gt;Open Ports: 22&lt;/div&gt;" style="text;html=1;align=center;verticalAlign=middle;resizable=0;points=[];autosize=1;strokeColor=none;fillColor=none;" vertex="1" parent="1">
          <mxGeometry x="2810" y="575" width="100" height="30" as="geometry" />
        </mxCell>
        <mxCell id="kNAQQPgvvK02Aw0wDlUr-105" value="&lt;div&gt;Open Ports: 22&lt;/div&gt;" style="text;html=1;align=center;verticalAlign=middle;resizable=0;points=[];autosize=1;strokeColor=none;fillColor=none;" vertex="1" parent="1">
          <mxGeometry x="2810" y="699" width="100" height="30" as="geometry" />
        </mxCell>
        <mxCell id="kNAQQPgvvK02Aw0wDlUr-112" style="edgeStyle=orthogonalEdgeStyle;rounded=0;sketch=0;orthogonalLoop=1;jettySize=auto;html=1;entryX=0;entryY=0.5;entryDx=0;entryDy=0;shadow=0;" edge="1" parent="1" source="kNAQQPgvvK02Aw0wDlUr-106" target="kNAQQPgvvK02Aw0wDlUr-115">
          <mxGeometry relative="1" as="geometry">
            <Array as="points">
              <mxPoint x="2620" y="140" />
              <mxPoint x="2620" y="30" />
            </Array>
          </mxGeometry>
        </mxCell>
        <mxCell id="kNAQQPgvvK02Aw0wDlUr-106" value="RED-POP2 Router" style="outlineConnect=0;dashed=0;verticalLabelPosition=bottom;verticalAlign=top;align=center;html=1;shape=mxgraph.aws3.router;fillColor=#F58536;gradientColor=none;sketch=0;shadow=0;container=0;" vertex="1" parent="1">
          <mxGeometry x="2440" y="100" width="80" height="80" as="geometry" />
        </mxCell>
        <UserObject label="172.16.140.X/27" link="172.16.120.1" id="kNAQQPgvvK02Aw0wDlUr-109">
          <mxCell style="text;whiteSpace=wrap;html=1;sketch=0;shadow=0;container=0;" vertex="1" parent="1">
            <mxGeometry x="2580" y="143" width="80" height="20" as="geometry" />
          </mxCell>
        </UserObject>
        <mxCell id="kNAQQPgvvK02Aw0wDlUr-113" value="eth1 = .62" style="text;whiteSpace=wrap;html=1;sketch=0;shadow=0;container=0;" vertex="1" parent="1">
          <mxGeometry x="2520" y="120" width="60" height="23" as="geometry" />
        </mxCell>
        <mxCell id="kNAQQPgvvK02Aw0wDlUr-114" value="&lt;div&gt;red-int-dmz2-host-2&lt;br&gt;&lt;/div&gt;&lt;div&gt;172.16.140.35&lt;/div&gt;" style="ellipse;whiteSpace=wrap;html=1;aspect=fixed;sketch=0;shadow=0;container=0;" vertex="1" parent="1">
          <mxGeometry x="2730" y="90" width="120" height="120" as="geometry" />
        </mxCell>
        <mxCell id="kNAQQPgvvK02Aw0wDlUr-115" value="&lt;div&gt;Recon Server 2&lt;br&gt;&lt;/div&gt;&lt;div&gt;172.16.140.33&lt;br&gt;&lt;/div&gt;" style="ellipse;whiteSpace=wrap;html=1;aspect=fixed;sketch=0;shadow=0;container=0;" vertex="1" parent="1">
          <mxGeometry x="2730" y="-30" width="120" height="120" as="geometry" />
        </mxCell>
        <mxCell id="kNAQQPgvvK02Aw0wDlUr-116" style="edgeStyle=orthogonalEdgeStyle;rounded=0;sketch=0;orthogonalLoop=1;jettySize=auto;html=1;shadow=0;entryX=0;entryY=0.5;entryDx=0;entryDy=0;exitX=0;exitY=1;exitDx=0;exitDy=0;" edge="1" parent="1" source="kNAQQPgvvK02Aw0wDlUr-113" target="kNAQQPgvvK02Aw0wDlUr-114">
          <mxGeometry relative="1" as="geometry">
            <mxPoint x="2650" y="140" as="sourcePoint" />
            <mxPoint x="2730" y="90" as="targetPoint" />
            <Array as="points">
              <mxPoint x="2520" y="140" />
              <mxPoint x="2620" y="140" />
              <mxPoint x="2620" y="150" />
            </Array>
          </mxGeometry>
        </mxCell>
        <mxCell id="kNAQQPgvvK02Aw0wDlUr-119" value="&amp;nbsp;" style="text;whiteSpace=wrap;html=1;" vertex="1" parent="1">
          <mxGeometry x="2650" y="40" width="40" height="40" as="geometry" />
        </mxCell>
        <mxCell id="kNAQQPgvvK02Aw0wDlUr-120" value="&amp;nbsp;" style="text;whiteSpace=wrap;html=1;" vertex="1" parent="1">
          <mxGeometry x="2750" y="80" width="40" height="40" as="geometry" />
        </mxCell>
        <mxCell id="kNAQQPgvvK02Aw0wDlUr-121" value="&lt;div&gt;Open Ports: 22, 80&lt;/div&gt;" style="text;html=1;align=center;verticalAlign=middle;resizable=0;points=[];autosize=1;strokeColor=none;fillColor=none;" vertex="1" parent="1">
          <mxGeometry x="2840" y="15" width="120" height="30" as="geometry" />
        </mxCell>
        <mxCell id="kNAQQPgvvK02Aw0wDlUr-122" value="&amp;nbsp;" style="text;whiteSpace=wrap;html=1;" vertex="1" parent="1">
          <mxGeometry x="2990" y="30" width="40" height="40" as="geometry" />
        </mxCell>
        <mxCell id="kNAQQPgvvK02Aw0wDlUr-123" value="&lt;div&gt;Open UDP Ports: 1984, 1989&lt;br&gt;&lt;/div&gt;" style="text;html=1;align=center;verticalAlign=middle;resizable=0;points=[];autosize=1;strokeColor=none;fillColor=none;" vertex="1" parent="1">
          <mxGeometry x="2850" y="463.5" width="180" height="30" as="geometry" />
        </mxCell>
      </root>
    </mxGraphModel>
  </diagram>
</mxfile>
